<svg xmlns="http://www.w3.org/2000/svg" viewBox="0 0 64 64">
  <defs>
    <linearGradient id="bg" x1="7" y1="8" x2="58" y2="56" gradientUnits="userSpaceOnUse">
      <stop stop-color="#FF4D8D"/>
      <stop offset=".28" stop-color="#8B5CF6"/>
      <stop offset=".55" stop-color="#007AFF"/>
      <stop offset=".78" stop-color="#36C5F0"/>
      <stop offset="1" stop-color="#25D366"/>
    </linearGradient>
    <linearGradient id="mark" x1="15" y1="21" x2="51" y2="43" gradientUnits="userSpaceOnUse">
      <stop stop-color="#007AFF"/>
      <stop offset=".32" stop-color="#5865F2"/>
      <stop offset=".55" stop-color="#FF4D8D"/>
      <stop offset=".78" stop-color="#FFCE3D"/>
      <stop offset="1" stop-color="#25D366"/>
    </linearGradient>
  </defs>
  <rect width="64" height="64" rx="16" fill="url(#bg)"/>
  <rect x="8" y="8" width="48" height="48" rx="13" fill="#FFFFFF" fill-opacity=".9"/>
  <path d="M14 32c0-7.7 5.2-12.8 12-12.8 4.4 0 7.8 2.2 11.3 6.8l2.1 2.7 2.2-2.7c3.5-4.6 6.9-6.8 11.2-6.8 6.8 0 12 5.1 12 12.8S59.6 44.8 52.8 44.8c-4.3 0-7.7-2.2-11.2-6.8l-2.2-2.7-2.1 2.7c-3.5 4.6-6.9 6.8-11.3 6.8-6.8 0-12-5.1-12-12.8Zm8 0c0 3.4 1.8 5.2 4.4 5.2 2 0 3.7-1.2 6-4.1l.9-1.1-.9-1.1c-2.3-2.9-4-4.1-6-4.1-2.6 0-4.4 1.8-4.4 5.2Zm22.4 0 .9 1.1c2.3 2.9 4 4.1 6 4.1 2.6 0 4.4-1.8 4.4-5.2s-1.8-5.2-4.4-5.2c-2 0-3.7 1.2-6 4.1l-.9 1.1Z" fill="url(#mark)" transform="translate(-7 0)"/>
  <circle cx="53" cy="12" r="3" fill="#FFCE3D"/>
  <circle cx="12" cy="51" r="2.7" fill="#36C5F0"/>
  <circle cx="16" cy="13" r="2.4" fill="#FF4D8D"/>
</svg>
