<svg xmlns="http://www.w3.org/2000/svg" viewBox="0 0 64 64">
  <rect width="64" height="64" rx="16" fill="#111111"/>
  <path d="M12 32c0-7.8 5.3-13 12.2-13 4.5 0 8 2.3 11.5 6.9l2.3 3 2.3-3c3.5-4.6 7-6.9 11.5-6.9C58.7 19 64 24.2 64 32s-5.3 13-12.2 13c-4.5 0-8-2.3-11.5-6.9L38 35.1l-2.3 3C32.2 42.7 28.7 45 24.2 45 17.3 45 12 39.8 12 32Zm7.8 0c0 3.5 1.9 5.3 4.6 5.3 2.1 0 3.9-1.3 6.2-4.2l.9-1.1-.9-1.1c-2.3-2.9-4.1-4.2-6.2-4.2-2.7 0-4.6 1.8-4.6 5.3Zm24.7 0 .9 1.1c2.3 2.9 4.1 4.2 6.2 4.2 2.7 0 4.6-1.8 4.6-5.3s-1.9-5.3-4.6-5.3c-2.1 0-3.9 1.3-6.2 4.2l-.9 1.1Z" fill="#FFFFFF" transform="translate(-6 0)"/>
</svg>
